<?xml version="1.0" encoding="UTF-8"?><svg id="_レイヤー_2" xmlns="http://www.w3.org/2000/svg" width="340.6" height="77.8" viewBox="0 0 340.6 77.8"><g id="_レイヤー_2-2"><g id="_レイヤー_2-2"><path d="m33,37.7c-15.1,0-27.3-3.2-27.3-7.2,0-1.9,2.7-3.6,7.1-4.8-7.5,1.5-12.5,3.9-12.8,6.6.2,8,27.9,9,33,9,9.1,0,17.4-1,23.3-2.5-3.2,17.6-15.1,30.7-29.2,30.7-7,0-13.3-3.2-18.4-8.5,3.9,5.7,8.9,9.9,14.5,12.3-5.3.4-8.9,1.2-8.9,2.1,0,1.3,8.1,2.4,18,2.4s18-1.1,18-2.4c0-.8-3-1.5-7.7-2,7.4-2.9,13.3-8.6,17.4-15.4,3.2,5,10.7,6.4,17.4,3.2,7.2-3.4,10.7-10.8,8-16.6-2.7-5.7-10.8-7.6-17.9-4.2-.5.2-.9.5-1.3.7.4-3.1.4-6.1-.1-8.9-.2-2.2-3.6-4.2-8.9-5.7,0,0,3.2,1.4,3.2,3.9,0,1.2-1.2,2.4-3.3,3.4-4.7,2.4-13.7,3.9-24.1,3.9h0Zm36.6,7.2c4.1-2,8.6-.9,10.2,2.4,1.6,3.3-.5,7.5-4.5,9.4s-8.6.9-10.2-2.4c-1.6-3.2.4-7.4,4.5-9.4h0Z" fill="#e6ded5" fill-rule="evenodd"/><path d="m33.9,24.9c11.4,0,20.7,2.2,20.7,5s-9.3,5-20.7,5-20.7-2.2-20.7-5c0-1.6,3-3,7.7-3.9-1.3.5-2,1.2-2,1.9,0,1.8,4.8,3.3,10.7,3.3s10.7-1.5,10.7-3.3c0-1.4-2.7-2.5-6.6-3h.2Z" fill="#e6bd8f" fill-rule="evenodd"/><path d="m26.7,18.6c.3-3.5-.7-6.2-2.9-8.3,2.5-.3,5.4,1.9,6.8,5.4,1.5,3.6.8,7.4-1.5,8.8-.1.1-.2.1-.4.2-1.8-1.4-2.5-3.4-2-6.1h0Zm-4.2-7.9c2.3,2.1,3.3,4.8,3,8.4-.5,2.6.1,4.6,1.8,5.9-2.5.2-5.2-2-6.6-5.4-1.5-3.6-.8-7.4,1.4-8.8.2,0,.3,0,.4-.1h0Z" fill="#e6ded5" fill-rule="evenodd"/><path d="m29.8,5.3c.7-2,.6-3.8-.3-5.3,1.5.3,2.8,2,3.1,4.3.2,2.4-.8,4.4-2.3,4.9-.1,0-.2,0-.3.1-.9-1.2-1-2.5-.2-4h0Zm-1.1-5.3c1,1.6,1.1,3.4.4,5.4-.8,1.5-.7,2.7.1,3.8-1.5-.3-2.7-2.1-3-4.2-.2-2.3.8-4.4,2.3-4.9,0-.1.1-.1.2-.1h0Z" fill="#e6ded5" fill-rule="evenodd"/><path d="m16.4,11.2c-.4-1.1-1-1.9-1.9-2.2.8-.4,1.9-.1,2.8.8.9.9,1.2,2.2.6,2.9l-.1.1c-.8-.1-1.3-.6-1.4-1.6h0Zm-2.3-1.9c1,.4,1.6,1.1,2,2.2.2.9.6,1.4,1.3,1.6-.8.4-1.9,0-2.7-.9-1-.8-1.2-2.1-.6-2.9-.1.1-.1,0,0,0h0Z" fill="#e6ded5" fill-rule="evenodd"/><path d="m126.2,51.4c0,.2-.1.5-.4.8-2.4,2.9-5.7,4.3-9.7,4.3s-7.4-1.4-10-4.2c-2.5-2.7-3.7-6.2-3.7-10.3s1.2-7.4,3.7-10.2c2.5-2.9,5.8-4.4,9.7-4.4,4.3,0,7.6,1.3,10.1,3.9.3.3.4.5.4.8,0,.2-.5,1.2-1.4,2.8s-1.5,2.5-1.7,2.7c-.1.1-.2.2-.4.2-.1,0-.4-.3-1-.8-.7-.6-1.4-1.1-2.1-1.5-1-.5-2.1-.8-3.2-.8-1.9,0-3.5.7-4.7,2.2-1.1,1.3-1.6,3-1.6,5s.5,3.7,1.6,5c1.2,1.5,2.7,2.2,4.7,2.2,1.2,0,2.2-.2,3.3-.8.7-.3,1.4-.8,2.1-1.4.6-.5.9-.8,1-.8s.3.1.4.2c.2.2.8,1.1,1.7,2.5.7,1.7,1.2,2.5,1.2,2.6h0Z" fill="#e6ded5"/><path d="m147.3,46.2c0,3-.9,5.5-2.8,7.3s-4.3,2.8-7.2,2.8-5.3-.9-7.2-2.8-2.8-4.2-2.8-7.1c0-3.1.9-5.5,2.7-7.5,1.8-1.9,4.2-2.9,7.3-2.9s5.4.9,7.2,2.8,2.8,4.4,2.8,7.4h0Zm-6.5,0c0-1-.3-2-1-2.8s-1.5-1.2-2.5-1.2-1.9.4-2.6,1.2c-.6.8-.9,1.7-.9,2.7s.3,2,.9,2.8c.7.8,1.5,1.2,2.6,1.2s1.9-.4,2.6-1.2c.6-.7.9-1.7.9-2.7Z" fill="#e6ded5"/><path d="m161.8,43.2c0,.3-.2.5-.5.5-1.4,0-2.6,0-3.4-.1,0,1,.1,2.4.1,4.1,0,.8.1,2.1.2,3.9.1,1.7.1,3,.1,3.9,0,.3-.2.4-.6.5-.4,0-1.6.1-3.4.1-1.5,0-2.5,0-2.9-.1s-.7-.3-.7-.8v-11c0-.4-.3-.6-.8-.6h-.8c-.4,0-.6-.1-.6-.3-.1-1.2-.2-2.8-.2-5,0-.5.2-.8.8-.9.4,0,.9-.1,1.4-.1-.1-1.1-.1-1.9-.1-2.5,0-2.3.4-3.9,1.3-5,1.8-2,4.6-3.1,8.5-3.1.3,0,.4.1.5.2.1.6.3,1.5.5,2.6,0,.1.1.5.3,1.1.1.5.2.9.2,1.1,0,.3-.5.5-1.4.6-1.1.1-1.8.3-2,.6-.4.5-.6,1.4-.6,2.8,0,.4,0,.8.1,1.2h3.5c.4,0,.6.1.6.4v2.8c-.1,1.5-.1,2.4-.1,3.1h0Z" fill="#e6ded5"/><path d="m176.1,43.2c0,.3-.2.5-.5.5-1.4,0-2.6,0-3.4-.1,0,1,.1,2.4.1,4.1,0,.8.1,2.1.2,3.9.1,1.7.1,3,.1,3.9,0,.3-.2.4-.6.5-.4,0-1.6.1-3.4.1-1.5,0-2.5,0-2.9-.1s-.7-.3-.7-.8v-11c0-.4-.3-.6-.8-.6h-.8c-.4,0-.6-.1-.6-.3-.1-1.2-.2-2.8-.2-5,0-.5.2-.8.8-.9.4,0,.9-.1,1.4-.1-.1-1.1-.1-1.9-.1-2.5,0-2.3.4-3.9,1.3-5,1.8-2,4.6-3.1,8.5-3.1.3,0,.4.1.5.2.1.6.3,1.5.5,2.6,0,.1.1.5.3,1.1.1.5.2.9.2,1.1,0,.3-.5.5-1.4.6-1.1.1-1.8.3-2,.6-.4.5-.6,1.4-.6,2.8,0,.4,0,.8.1,1.2h3.5c.4,0,.6.1.6.4v2.8c-.1,1.5-.1,2.4-.1,3.1h0Z" fill="#e6ded5"/><path d="m196.4,45.2c0,1.3-.4,2.1-1.3,2.3-.1,0-1.5.2-4.1.4-1.6.2-3.9.4-7,.6.2.9.8,1.5,1.7,2,.8.4,1.6.5,2.6.5,1.2,0,2.4-.3,3.5-1,.5-.3,1-.6,1.5-1,.3.1.7.8,1.4,2,.6,1.2,1,2,1,2.3,0,.1-.1.2-.3.5-1.6,1.7-4.1,2.6-7.5,2.6-3.1,0-5.7-.9-7.6-2.8-2-1.9-3-4.3-3-7.5s.9-5.5,2.6-7.5c1.8-2,4.2-3,7.2-3,2.5,0,4.7.9,6.4,2.8s2.9,4.2,2.9,6.8h0Zm-6.9-1.2c0-.8-.3-1.5-.9-2.2s-1.3-.9-2.1-.9-1.5.3-2.1,1c-.5.7-.8,1.4-.8,2.3,0,.4.2.5.6.5,1,0,2.5-.2,4.6-.5.4,0,.7-.1.7-.2h0Z" fill="#e6ded5"/><path d="m216.7,45.2c0,1.3-.4,2.1-1.3,2.3-.1,0-1.5.2-4.1.4-1.6.2-3.9.4-7,.6.2.9.8,1.5,1.7,2,.8.4,1.6.5,2.6.5,1.2,0,2.4-.3,3.5-1,.5-.3,1-.6,1.5-1,.3.1.7.8,1.4,2,.6,1.2,1,2,1,2.3,0,.1-.1.2-.3.5-1.6,1.7-4.1,2.6-7.5,2.6-3.1,0-5.7-.9-7.6-2.8-2-1.9-3-4.3-3-7.5s.9-5.5,2.6-7.5c1.8-2,4.2-3,7.2-3,2.5,0,4.7.9,6.4,2.8s2.8,4.2,2.9,6.8h0Zm-6.9-1.2c0-.8-.3-1.5-.9-2.2s-1.3-.9-2.1-.9-1.5.3-2.1,1c-.5.7-.8,1.4-.8,2.3,0,.4.2.5.6.5,1,0,2.5-.2,4.6-.5.4,0,.7-.1.7-.2h0Z" fill="#e6ded5"/><path d="m258.6,55.3c0,.4-.2.6-.6.6h-7c-.4,0-.6-.2-.6-.7,0-1.3.1-3.3.1-6,.1-2.7.1-4.7.1-6,0-.4-.1-.6-.2-.6-.1.1-1,2.1-2.6,6.1-.9,2.3-1.9,4.7-2.9,7-.1.3-.3.5-.5.5h-.8c-.7,0-1.1-.1-1.2-.4-.7-1.5-1.6-3.6-2.8-6.3-1.2-2.9-2.2-5-2.8-6.3,0-.1-.1-.1-.2-.2-.1.1-.1.3-.1.6,0,1.3,0,3.2.1,5.8s.1,4.5.1,5.8c0,.5-.2.7-.6.7h-6.6c-.3,0-.4,0-.5-.1s-.1-.2-.1-.4c0-1.4.1-3.6.2-6.5s.2-5,.2-6.5-.1-4.4-.2-8.6c0-1.1-.1-2.7-.2-4.9v-.3c0-.3.3-.4.8-.4.7,0,1.8,0,3.3-.1s2.5-.1,3.3-.1c.1,0,.4.3.6.8l5.8,12.7c.4.9.8,1.3,1,1.3.1,0,.5-.5.9-1.5,1.3-2.8,3.3-6.9,5.9-12.5.2-.5.5-.8.7-.8.4,0,1,0,1.7.1.8,0,1.4.1,1.8.1.3,0,.8,0,1.5-.1s1.2-.1,1.5-.1c.4,0,.6.2.6.5,0,1.6-.1,3.9-.2,7s-.2,5.4-.2,7c0,1.4.1,3.6.2,6.5s.5,4.8.5,6.3h0Z" fill="#e6ded5"/><path d="m282,46c0,1,.1,2.5.2,4.5s.2,3.5.2,4.5c0,.5-.2.8-.7.8-1.6.1-3.5.2-5.6.2-.2,0-.4-.4-.5-1.1-.1-.8-.2-1.1-.3-1.2-.1,0-.2.2-.4.3-1.5,1.5-3.1,2.2-4.8,2.2-2.6,0-4.7-1-6.4-3-1.6-1.9-2.4-4.2-2.4-6.8,0-3,.8-5.5,2.5-7.4s4.1-2.9,7-2.9c2.1,0,3.7.7,4.9,2.2,0,.1.1.1.1.1.1,0,.2-.3.4-1,.1-.6.3-1,.5-1,.5,0,1.4.1,2.8.4,1.3.3,2.2.5,2.8.7.2.1.3.2.3.3,0,0,0,.2-.1.4-.2,2.6-.4,5.2-.5,7.8h0Zm-6.3.1c0-1.1-.4-2-1.1-2.8s-1.6-1.1-2.8-1.1-2,.4-2.8,1.1-1,1.7-1,2.8.4,2,1.1,2.8,1.6,1.2,2.7,1.2,2-.4,2.8-1.1,1.1-1.7,1.1-2.9Z" fill="#e6ded5"/><path d="m305.6,55.3c0,.4-.2.6-.5.6-.4,0-1.3.1-2.9.1-1.7,0-2.7,0-3.1-.1s-.6-.3-.6-.8c0-.6,0-1.6.1-2.8s.1-2.2.1-2.8v-4.4c0-1.8-.8-2.7-2.4-2.7-.5,0-1.1.2-1.8.7-.7.5-1.1,1-1.1,1.5v10.7c0,.4-.2.7-.6.7-.5,0-1.4.1-2.8.1-1.5,0-2.5,0-3-.1-.4-.1-.6-.3-.6-.7v-9.4c0-3.3-.3-5.9-.8-7.7v-.3c0-.2.1-.4.3-.4.8-.1,1.9-.2,3.3-.4,2.1-.4,3.3-.6,3.5-.6.1,0,.3.4.3,1.3s.2,1.3.3,1.3c-.1,0,.6-.5,2.1-1.4,1.6-.9,2.9-1.4,4.1-1.4,1.7,0,3.1.4,4.2,1.2,1.2.9,1.9,2.2,1.9,3.8v10.1c.1,1.8.1,3.1,0,3.9h0Z" fill="#e6ded5"/><path d="m316.3,46.8c0,1,0,2.4.1,4.3,0,1.9.1,3.3.1,4.3,0,.3-.2.4-.5.5-.5.1-1.5.1-3,.1s-2.6,0-3-.1c-.3,0-.5-.1-.5-.3v-.6c0-.9,0-2.3.1-4.1s.1-3.2.1-4.1c0-3.8-.1-6.7-.4-8.9v-.4c0-.3.2-.4.5-.4s.9,0,1.7.1,1.3.1,1.7.1,1,0,1.7-.1,1.3-.1,1.7-.1c.3,0,.5.1.5.4v.4c-.7,2.6-.8,5.5-.8,8.9h0Zm.5-14.7c0,2.3-1.3,3.4-3.9,3.4-1.1,0-2-.3-2.8-.9-.8-.6-1.2-1.5-1.2-2.6s.4-1.9,1.2-2.5c.8-.6,1.7-.9,2.7-.9s1.9.3,2.7.9c.9.8,1.3,1.6,1.3,2.6Z" fill="#e6ded5"/><path d="m340,46c0,1,.1,2.5.2,4.5s.2,3.5.2,4.5c0,.5-.2.8-.7.8-1.6.1-3.5.2-5.6.2-.2,0-.4-.4-.5-1.1-.1-.8-.2-1.1-.3-1.2-.1,0-.2.2-.4.3-1.5,1.5-3.1,2.2-4.8,2.2-2.6,0-4.7-1-6.4-3-1.6-1.9-2.4-4.2-2.4-6.8,0-3,.8-5.5,2.5-7.4s4.1-2.9,7-2.9c2.1,0,3.7.7,4.9,2.2,0,.1.1.1.1.1.1,0,.2-.3.4-1,.1-.6.3-1,.5-1,.5,0,1.4.1,2.8.4,1.3.3,2.2.5,2.8.7.2.1.3.2.3.3,0,0,0,.2-.1.4-.3,2.6-.5,5.2-.5,7.8h0Zm-6.4.1c0-1.1-.4-2-1.1-2.8s-1.6-1.1-2.8-1.1-2,.4-2.8,1.1-1,1.7-1,2.8.4,2,1.1,2.8,1.6,1.2,2.7,1.2,2-.4,2.8-1.1,1.1-1.7,1.1-2.9Z" fill="#e6ded5"/></g></g></svg>