<svg id="zouri" xmlns="http://www.w3.org/2000/svg" width="24.04" height="20" viewBox="0 0 24.04 20">
  <path id="パス_37" data-name="パス 37" d="M206.547,324.334a.509.509,0,1,0-.719,0,.509.509,0,0,0,.719,0Z" transform="translate(-200.85 -311.459)" fill="none"/>
  <path id="パス_38" data-name="パス 38" d="M196.785,334.1a.508.508,0,1,0-.717,0,.507.507,0,0,0,.717,0Z" transform="translate(-191.842 -320.476)" fill="none"/>
  <path id="パス_39" data-name="パス 39" d="M186.619,323.931a.507.507,0,1,0-.717,0,.506.506,0,0,0,.717,0Z" transform="translate(-181.105 -311.089)" fill="none"/>
  <path id="パス_40" data-name="パス 40" d="M168.769,286.1a.507.507,0,1,0-.717,0,.507.507,0,0,0,.717,0Z" transform="translate(-165.673 -276.173)" fill="none"/>
  <path id="パス_41" data-name="パス 41" d="M170.859,300.9a1.587,1.587,0,0,1-.233.348.37.37,0,0,1-.028.026,1.561,1.561,0,0,1-.284.235c-.033.022-.066.042-.1.062a1.071,1.071,0,0,1-.1.057,1.236,1.236,0,0,1-.173.06c-.041.015-.081.032-.123.044a1.672,1.672,0,0,1-.408.057h0a1.636,1.636,0,0,1-.408-.057c-.042-.012-.082-.029-.123-.044a1.36,1.36,0,0,1-.173-.06c-.034-.016-.063-.04-.1-.057s-.069-.04-.1-.062a1.519,1.519,0,0,1-.282-.235c-.009-.01-.021-.017-.029-.026a1.654,1.654,0,0,1-.233-.348c-.007-.014-.019-.023-.026-.039l-3.658-7.647c.053,6.74.91,9.964,5.131,9.964s5.079-3.224,5.132-9.964l-3.658,7.647C170.878,300.872,170.867,300.881,170.859,300.9Z" transform="translate(-162.376 -285.073)" fill="none"/>
  <path id="パス_42" data-name="パス 42" d="M178.217,296.292a.508.508,0,1,0,0-.717.506.506,0,0,0,0,.717Z" transform="translate(-174.258 -285.579)" fill="none"/>
  <path id="パス_43" data-name="パス 43" d="M187.985,285.81a.508.508,0,1,0,.718,0,.51.51,0,0,0-.718,0Z" transform="translate(-182.962 -276.568)" fill="none"/>
  <path id="パス_44" data-name="パス 44" d="M171.205,194.862l3.7,9.821,3.7-9.821a1.85,1.85,0,0,1,.883-1.034c-.754-3.344-2.287-5.039-4.589-5.039s-3.834,1.694-4.589,5.041A1.844,1.844,0,0,1,171.205,194.862Z" transform="translate(-167.873 -186.889)" fill="none"/>
  <path id="パス_45" data-name="パス 45" d="M416.865,285.384a.508.508,0,1,0,.717,0A.508.508,0,0,0,416.865,285.384Z" transform="translate(-395.92 -276.173)" fill="none"/>
  <path id="パス_46" data-name="パス 46" d="M177.808,275.644a.507.507,0,1,0,.717,0,.506.506,0,0,0-.717,0Z" transform="translate(-173.892 -267.184)" fill="none"/>
  <path id="パス_47" data-name="パス 47" d="M195.651,314.173a.508.508,0,1,0,0-.718.509.509,0,0,0,0,.718Z" transform="translate(-191.458 -302.081)" fill="none"/>
  <path id="パス_48" data-name="パス 48" d="M389.245,313.435a.508.508,0,1,0,.718,0,.509.509,0,0,0-.718,0Z" transform="translate(-370.117 -302.062)" fill="none"/>
  <path id="パス_49" data-name="パス 49" d="M323.9,300.9a1.59,1.59,0,0,1-.234.348c-.008.01-.02.017-.029.026a1.577,1.577,0,0,1-.282.235c-.033.022-.067.042-.1.062s-.062.042-.1.057a1.362,1.362,0,0,1-.173.06c-.041.015-.081.032-.123.044a1.679,1.679,0,0,1-.408.057h0a1.636,1.636,0,0,1-.408-.057c-.042-.012-.082-.029-.123-.044a1.272,1.272,0,0,1-.173-.06c-.035-.016-.064-.04-.1-.057s-.068-.04-.1-.062a1.562,1.562,0,0,1-.284-.235c-.009-.01-.02-.017-.028-.026A1.655,1.655,0,0,1,321,300.9c-.007-.014-.019-.023-.026-.039l-3.658-7.647c.053,6.74.909,9.964,5.132,9.964s5.079-3.224,5.131-9.964l-3.658,7.647C323.918,300.872,323.907,300.881,323.9,300.9Z" transform="translate(-305.448 -285.073)" fill="none"/>
  <path id="パス_50" data-name="パス 50" d="M324.253,194.862l3.7,9.821,3.7-9.821a1.841,1.841,0,0,1,.885-1.032c-.755-3.345-2.288-5.041-4.589-5.041s-3.835,1.694-4.589,5.039A1.851,1.851,0,0,1,324.253,194.862Z" transform="translate(-310.955 -186.889)" fill="none"/>
  <path id="パス_51" data-name="パス 51" d="M407.405,296.294a.507.507,0,1,0-.717,0,.506.506,0,0,0,.717,0Z" transform="translate(-387.326 -285.582)" fill="none"/>
  <path id="パス_52" data-name="パス 52" d="M407.822,276.352a.507.507,0,1,0-.717,0,.508.508,0,0,0,.717,0Z" transform="translate(-387.698 -267.175)" fill="none"/>
  <path id="パス_53" data-name="パス 53" d="M399.733,323.924a.508.508,0,1,0-.718,0A.51.51,0,0,0,399.733,323.924Z" transform="translate(-380.489 -311.08)" fill="none"/>
  <path id="パス_54" data-name="パス 54" d="M396.915,285.792a.508.508,0,1,0,.718,0,.509.509,0,0,0-.718,0Z" transform="translate(-378.617 -276.55)" fill="none"/>
  <path id="パス_55" data-name="パス 55" d="M379.065,323.627a.509.509,0,1,0,.718,0,.51.51,0,0,0-.718,0Z" transform="translate(-360.723 -311.471)" fill="none"/>
  <path id="パス_56" data-name="パス 56" d="M389.549,334.105a.507.507,0,1,0-.717,0,.508.508,0,0,0,.717,0Z" transform="translate(-369.735 -320.479)" fill="none"/>
  <path id="パス_57" data-name="パス 57" d="M166.9,173.825c0-.016-.005-.033-.008-.048-.768-4.994-3.506-6.157-5.866-6.157s-5.1,1.163-5.866,6.157c0,.015-.005.032-.008.048-.024.16-.044.327-.064.494-.02-.168-.04-.334-.064-.494,0-.016,0-.033-.008-.048-.767-4.994-3.505-6.157-5.866-6.157s-5.1,1.163-5.866,6.157c0,.015-.005.032-.008.048a19.689,19.689,0,0,0-.208,2.937c0,4.582,0,10.858,6.082,10.858,4.358,0,5.588-3.224,5.938-6.737.35,3.512,1.581,6.737,5.938,6.737,6.082,0,6.082-6.277,6.082-10.858a19.573,19.573,0,0,0-.209-2.937Zm-17.751-4.562c1.99,0,3.314,1.155,3.966,3.434a1.4,1.4,0,0,0-.764.7l-3.2,6.693-3.2-6.693a1.4,1.4,0,0,0-.765-.7c.653-2.28,1.977-3.436,3.966-3.436Zm-1.859,8.266a.439.439,0,1,1,0-.622.438.438,0,0,1,0,.622Zm.6,1.525a.439.439,0,1,1-.621,0,.44.44,0,0,1,.621,0Zm-1.386-2.315a.438.438,0,1,1,0-.62.437.437,0,0,1,0,.62Zm-.587.928a.438.438,0,1,1,0,.62.437.437,0,0,1,0-.62Zm.6,2.145a.438.438,0,1,1,0,.622.441.441,0,0,1,0-.622Zm.79.79a.439.439,0,1,1,0,.621.437.437,0,0,1,0-.621Zm.757-.758a.44.44,0,1,1,0,.622.439.439,0,0,1,0-.622Zm-2.932-2.967a.438.438,0,1,1,0,.622.441.441,0,0,1,0-.622Zm4.026,9.1c-3.65,0-4.39-2.787-4.435-8.612l3.162,6.609c.006.013.016.021.023.033a1.372,1.372,0,0,0,.2.3c.007.009.017.015.025.023a1.368,1.368,0,0,0,.244.2c.029.019.058.036.088.054s.054.036.083.05a1.177,1.177,0,0,0,.15.052c.036.013.07.028.106.038a1.45,1.45,0,0,0,.352.05h0a1.413,1.413,0,0,0,.352-.05c.036-.01.071-.025.106-.038a1.07,1.07,0,0,0,.15-.052c.03-.014.055-.034.084-.05s.059-.035.088-.054a1.353,1.353,0,0,0,.245-.2c.008-.009.017-.015.024-.023a1.4,1.4,0,0,0,.2-.3c.006-.012.016-.02.023-.033l3.162-6.609C153.541,183.193,152.8,185.979,149.151,185.979Zm15.9-8.481a.439.439,0,1,1,0-.622A.439.439,0,0,1,165.055,177.5Zm-1.548.032a.439.439,0,1,1,0-.621.44.44,0,0,1,0,.621Zm.169-1.41a.438.438,0,1,1,0,.62.437.437,0,0,1,0-.62Zm-.765,2.934a.439.439,0,1,1-.621,0,.44.44,0,0,1,.621,0Zm-.789,1.411a.44.44,0,1,1,0-.622.439.439,0,0,1,0,.622Zm.137.136a.438.438,0,1,1,0,.62.439.439,0,0,1,0-.62Zm.79-.789a.439.439,0,1,1,0,.619A.437.437,0,0,1,163.048,179.812Zm.6-1.526a.438.438,0,1,1,.62,0,.437.437,0,0,1-.62,0Zm-2.616-9.024c1.989,0,3.314,1.155,3.966,3.436a1.4,1.4,0,0,0-.765.7l-3.2,6.693-3.2-6.693a1.407,1.407,0,0,0-.764-.7c.652-2.279,1.977-3.434,3.966-3.434Zm0,16.716c-3.65,0-4.39-2.787-4.436-8.612l3.162,6.61c.006.013.016.021.023.033a1.372,1.372,0,0,0,.2.3c.007.009.016.015.024.023a1.349,1.349,0,0,0,.245.2c.029.019.057.036.088.054a.919.919,0,0,0,.084.05,1.067,1.067,0,0,0,.15.052c.036.013.07.028.106.038a1.445,1.445,0,0,0,.352.05h0a1.413,1.413,0,0,0,.352-.05c.036-.01.071-.025.106-.038a1.18,1.18,0,0,0,.15-.052c.029-.014.054-.034.083-.05s.06-.035.088-.054a1.312,1.312,0,0,0,.244-.2c.008-.009.018-.015.025-.023a1.4,1.4,0,0,0,.2-.3c.006-.012.016-.02.023-.033l3.162-6.61c-.046,5.826-.786,8.612-4.435,8.612Z" transform="translate(-143.07 -167.62)" fill="#555"/>
</svg>
