<svg id="oke" xmlns="http://www.w3.org/2000/svg" width="33.309" height="20" viewBox="0 0 33.309 20">
  <path id="パス_61" data-name="パス 61" d="M111.179,143.218c.1-.035.2-.069.308-.1q.189-.061.388-.118l.334-.1c.138-.038.279-.074.421-.11.118-.03.237-.06.359-.088.148-.035.3-.069.455-.1.126-.027.252-.055.382-.082.158-.032.32-.063.483-.094.134-.025.266-.05.4-.074.168-.029.34-.057.512-.084.139-.023.277-.045.419-.066.178-.026.36-.051.542-.075.144-.019.287-.039.433-.057.187-.023.378-.044.569-.066.149-.016.3-.034.446-.049.194-.02.392-.037.59-.055.153-.014.3-.029.459-.041.206-.016.415-.03.625-.044.152-.011.3-.022.455-.031.221-.013.445-.023.668-.034.146-.007.29-.015.438-.021.253-.01.509-.016.764-.023L122,141.7q.569-.012,1.148-.012t1.148.012c.122,0,.242.007.364.011.256.007.512.013.764.023.148.006.292.014.438.021.223.011.447.021.667.033.154.009.3.021.455.031.209.014.418.028.623.044.156.013.307.027.461.041.2.017.4.035.589.055.151.015.3.033.448.049.19.021.38.042.567.065.148.018.29.038.435.057.182.025.363.049.54.075.142.021.281.043.42.066.172.027.344.055.512.084.137.024.271.049.4.074.162.031.324.061.481.093.13.027.257.054.383.082.154.033.305.068.454.1.122.029.241.058.36.088.142.037.282.072.419.11l.336.1q.2.058.386.118.159.051.31.1c.12.041.236.083.349.126.1.036.19.072.281.109.108.044.211.088.312.133.086.038.17.076.25.115s.184.092.272.14.149.08.218.12c.027.016.06.032.086.048.022-.019.045-.039.065-.057a1.651,1.651,0,0,0,.14-.151,1.078,1.078,0,0,0,.1-.138.776.776,0,0,0,.045-.088.577.577,0,0,0,.054-.217c0-1.327-5.377-3.177-14.135-3.177-7.424,0-12.4,1.329-13.753,2.543l1.469.609q.156-.058.319-.114Z" transform="translate(-103.969 -140.18)" fill="#555"/>
  <path id="パス_62" data-name="パス 62" d="M173.319,177.575c-.053-.027-.114-.055-.171-.082s-.136-.067-.209-.1c-.1-.045-.209-.089-.318-.133-.074-.03-.146-.06-.225-.09-.123-.047-.255-.092-.387-.137-.072-.025-.142-.051-.217-.074-.183-.059-.376-.116-.574-.172l-.089-.027c-.231-.064-.473-.126-.723-.185-.078-.019-.162-.036-.241-.054-.175-.04-.352-.08-.536-.118l-.316-.061c-.168-.033-.335-.065-.508-.1-.118-.021-.239-.041-.36-.06-.169-.028-.338-.056-.512-.082l-.386-.056c-.174-.025-.35-.048-.528-.07l-.409-.05q-.27-.032-.545-.061l-.421-.043c-.189-.018-.38-.035-.573-.051-.142-.012-.283-.024-.427-.035-.2-.015-.4-.028-.6-.041l-.43-.027c-.209-.012-.421-.021-.634-.031l-.42-.019c-.235-.009-.473-.015-.711-.021l-.365-.01q-.541-.01-1.093-.011c-.368,0-.731,0-1.093.011-.122,0-.243.007-.364.01-.238.006-.477.012-.712.021l-.419.019c-.213.01-.426.019-.636.031l-.428.027c-.2.013-.4.026-.6.041l-.423.035c-.194.017-.387.033-.577.052l-.417.042c-.185.019-.368.04-.55.061-.136.016-.271.032-.4.049l-.533.072-.381.055c-.175.027-.347.055-.517.083-.119.019-.238.039-.354.059-.175.031-.346.064-.515.1-.1.02-.209.039-.309.06-.187.039-.368.079-.546.12l-.231.051c-.25.06-.492.122-.724.185l-.079.023c-.1.028-.191.057-.285.084h0l5.78,2.4a.4.4,0,0,1,.11.073c.153.015.3.031.458.044q.211.019.426.035c.3.023.6.043.913.062.16.009.318.019.479.027q.551.028,1.125.045l.421.011c.454.011.914.018,1.388.018s.934-.008,1.387-.018l.422-.011q.573-.018,1.124-.045c.162-.008.321-.018.481-.027.309-.019.614-.039.911-.062l.427-.035a24.448,24.448,0,0,0,8.17-1.805l.005,0Z" transform="translate(-141.217 -173.227)" fill="#555"/>
  <path id="パス_63" data-name="パス 63" d="M385.81,350.606c1.374-.115,2.619-.278,3.721-.474V345.65c-1.164.2-2.42.354-3.721.463Z" transform="translate(-362.06 -331.858)" fill="#555"/>
  <path id="パス_64" data-name="パス 64" d="M228.09,355.3c1.177.13,2.472.222,3.861.269v-4.487c-1.313-.047-2.615-.138-3.861-.275Z" transform="translate(-214.904 -336.675)" fill="#555"/>
  <path id="パス_65" data-name="パス 65" d="M177.42,351.414c.759.159,1.6.3,2.517.421V347.35c-.334-.043-.662-.09-.985-.14Z" transform="translate(-167.631 -333.314)" fill="#555"/>
  <path id="パス_66" data-name="パス 66" d="M298.98,353.674v4.486c.38.007.758.015,1.152.015,1.342,0,2.593-.048,3.769-.126V353.56c-1.242.084-2.512.127-3.769.127C299.749,353.687,299.364,353.682,298.98,353.674Z" transform="translate(-281.04 -339.242)" fill="#555"/>
  <path id="パス_67" data-name="パス 67" d="M300.132,246.769q-.554,0-1.111-.011h-.041v3.708c.38.007.758.015,1.152.015,1.342,0,2.593-.048,3.769-.126V246.64c-.877.059-1.767.1-2.657.118Q300.686,246.769,300.132,246.769Z" transform="translate(-281.04 -239.504)" fill="#555"/>
  <path id="パス_68" data-name="パス 68" d="M457.961,316.962c-.137.055-.279.109-.425.162a20.685,20.685,0,0,1-2.935.783v4.472a19.01,19.01,0,0,0,2.935-.827c.148-.057.293-.114.425-.173.155-.068.292-.137.425-.206.749-.389,1.156-.786,1.156-1.146V316.1a5.848,5.848,0,0,1-1.156.679q-.2.094-.425.182Z" transform="translate(-426.233 -304.272)" fill="#555"/>
  <path id="パス_69" data-name="パス 69" d="M385.81,239.235v3.712c1.374-.115,2.619-.278,3.721-.474v-3.7h0c-1.164.2-2.421.352-3.721.46v0Z" transform="translate(-362.06 -232.16)" fill="#555"/>
  <path id="パス_70" data-name="パス 70" d="M228.731,244.883l-.641,1.758v1.89c1.177.13,2.472.222,3.861.269v-3.71h0c-1.089-.039-2.171-.108-3.22-.209v0Z" transform="translate(-214.904 -237.862)" fill="#555"/>
  <path id="パス_71" data-name="パス 71" d="M459.295,209.448a6.406,6.406,0,0,1-.909.5c-.137.064-.276.126-.425.187s-.281.106-.425.158a20.7,20.7,0,0,1-2.935.787v3.7a19.006,19.006,0,0,0,2.935-.827c.148-.057.293-.114.425-.173.156-.068.292-.137.425-.207.749-.389,1.156-.786,1.156-1.146V209.28c-.025.019-.055.036-.08.055C459.409,209.373,459.351,209.41,459.295,209.448Z" transform="translate(-426.233 -204.644)" fill="#555"/>
  <path id="パス_72" data-name="パス 72" d="M224.877,278.738c-.135.055-.281.106-.425.158a20.608,20.608,0,0,1-2.935.787c-.14.028-.283.054-.425.08s-.281.053-.425.078c-1.164.2-2.421.353-3.721.461l-.425.035-.425.029c-1.242.083-2.512.128-3.769.128q-.575,0-1.152-.013c-.142,0-.284-.008-.425-.013s-.284-.007-.425-.013c-1.313-.047-2.614-.139-3.861-.275-.142-.015-.285-.031-.425-.047l-.426-.054-.1-.014-.586,1.609c.224.034.456.065.69.1l.426.054c.143.017.279.037.425.053,1.177.13,2.472.222,3.861.269.144,0,.28.013.425.017s.285,0,.425.005c.38.007.758.015,1.152.015,1.342,0,2.593-.048,3.769-.126.142-.009.286-.018.425-.029s.287-.019.425-.031c1.374-.115,2.619-.278,3.721-.474.148-.026.282-.055.425-.083s.288-.055.425-.083a19.01,19.01,0,0,0,2.935-.827c.148-.057.293-.114.425-.173.156-.068.292-.137.425-.207.749-.389,1.156-.786,1.156-1.146V277.88a5.937,5.937,0,0,1-1.156.67c-.137.063-.276.126-.425.186Z" transform="translate(-193.15 -268.648)" fill="#555"/>
  <path id="パス_73" data-name="パス 73" d="M41.76,199.789l.149-.409.581-1.594.144-.4.15-.411.671-1.841.425-1.168.193-.532v0l.072-.2-.267-.111-.417-.173-.035-.015h0l-1.621-.671-.034-.014-3.906-1.619h0l-.544-.225-.514-.213h0l-.734-.3-.009,0-.031-.013-.188.508v0l-.168.453-.064.172-.425,1.15L31.22,202.867l8.12,3.565.468-1.284.013-.035.13-.359.151-.413.068-.189,1.444-3.965Z" transform="translate(-31.22 -186.432)" fill="#555"/>
</svg>
