<svg xmlns="http://www.w3.org/2000/svg" width="50" height="50" viewBox="0 0 50 50">
  <g id="グループ_163" data-name="グループ 163" transform="translate(-0.283)">
    <rect id="長方形_120" data-name="長方形 120" width="50" height="50" transform="translate(0.283)" fill="#555"/>
    <path id="Icon_awesome-instagram" data-name="Icon awesome-instagram" d="M15.064,9.577A7.724,7.724,0,1,0,22.788,17.3,7.712,7.712,0,0,0,15.064,9.577Zm0,12.745A5.021,5.021,0,1,1,20.086,17.3a5.031,5.031,0,0,1-5.021,5.021ZM24.905,9.261a1.8,1.8,0,1,1-1.8-1.8A1.8,1.8,0,0,1,24.905,9.261Zm5.116,1.828a8.915,8.915,0,0,0-2.433-6.312,8.974,8.974,0,0,0-6.312-2.433c-2.487-.141-9.942-.141-12.429,0A8.961,8.961,0,0,0,2.534,4.77,8.945,8.945,0,0,0,.1,11.082c-.141,2.487-.141,9.942,0,12.429a8.915,8.915,0,0,0,2.433,6.312,8.985,8.985,0,0,0,6.312,2.433c2.487.141,9.942.141,12.429,0a8.915,8.915,0,0,0,6.312-2.433,8.974,8.974,0,0,0,2.433-6.312c.141-2.487.141-9.935,0-12.423ZM26.808,26.18a5.084,5.084,0,0,1-2.864,2.864c-1.983.786-6.689.6-8.88.6s-6.9.175-8.88-.6A5.084,5.084,0,0,1,3.321,26.18c-.786-1.983-.6-6.689-.6-8.88s-.175-6.9.6-8.88A5.084,5.084,0,0,1,6.184,5.557c1.983-.786,6.689-.6,8.88-.6s6.9-.175,8.88.6A5.084,5.084,0,0,1,26.808,8.42c.786,1.983.6,6.689.6,8.88S27.594,24.2,26.808,26.18Z" transform="translate(10.046 7.91)" fill="#fff"/>
  </g>
</svg>
