<svg id="sara" xmlns="http://www.w3.org/2000/svg" width="25.539" height="20" viewBox="0 0 25.539 20">
  <path id="パス_74" data-name="パス 74" d="M129.59,197.925a13.075,13.075,0,0,0,.352,2.17l2.635-1.33a4.488,4.488,0,0,1-.7-.533,2.084,2.084,0,0,1-.423-.545.8.8,0,0,1,0-.787,2.885,2.885,0,0,1,1-1,11,11,0,0,1,3.521-1.386,22.761,22.761,0,0,1,5.11-.552c.331,0,.657.008.98.02l3.3-1.664a25.529,25.529,0,0,0-4.277-.352,21.53,21.53,0,0,0-7.856,1.333,8.126,8.126,0,0,0-2.569,1.564,4,4,0,0,0-.818,1.082,3.045,3.045,0,0,0-.284.985.408.408,0,0,0-.014.072v.025c-.008.091-.033.179-.033.272a2.933,2.933,0,0,0,.078.631Z" transform="translate(-128.488 -190.639)" fill="#555"/>
  <path id="パス_75" data-name="パス 75" d="M138.215,173.8l-.744-.49a.657.657,0,0,0-.384-.073,1.286,1.286,0,0,0-.472.123l-21.322,10.717c-.271.134-.356.325-.191.433l.154.1a.657.657,0,0,0,.375.071,1.247,1.247,0,0,0,.463-.114l21.912-10.329c.283-.134.376-.331.209-.441Z" transform="translate(-115.019 -173.234)" fill="#555"/>
  <path id="パス_76" data-name="パス 76" d="M155.777,194.973l-.744-.49a1,1,0,0,0-.824.037l-22.421,9.991a.582.582,0,0,0-.285.231.157.157,0,0,0,.062.217l.154.1a.986.986,0,0,0,.807-.027l23.011-9.6a.615.615,0,0,0,.3-.234.158.158,0,0,0-.062-.222Z" transform="translate(-130.322 -192.917)" fill="#555"/>
  <path id="パス_77" data-name="パス 77" d="M174.96,234.659a.637.637,0,0,0-.013-.072,3.064,3.064,0,0,0-.285-.985,4.077,4.077,0,0,0-.875-1.122l-2.088.87a4.834,4.834,0,0,1,.922.664,2.065,2.065,0,0,1,.426.546.8.8,0,0,1,0,.787,2.906,2.906,0,0,1-1.007,1,11.076,11.076,0,0,1-3.536,1.387,22.913,22.913,0,0,1-5.133.551,24.381,24.381,0,0,1-3.062-.187l-6.869,2.865a13.587,13.587,0,0,0,1.728,2.488,12.388,12.388,0,0,0,2.906,2.429l.048,1.083c.213.7,2.479,1.258,5.249,1.258s5.037-.554,5.249-1.259l.047-1.081a12.4,12.4,0,0,0,2.907-2.43,13.612,13.612,0,0,0,3.341-7.87,2.926,2.926,0,0,0,.078-.631c0-.092-.025-.181-.033-.272v-.025Z" transform="translate(-150.73 -228.226)" fill="#555"/>
</svg>
