<svg id="icon_maiko" xmlns="http://www.w3.org/2000/svg" width="20.869" height="20" viewBox="0 0 20.869 20">
  <path id="パス_78" data-name="パス 78" d="M289.429,381.524a.44.44,0,0,0,.439-.44v-.626a.439.439,0,0,0-.878,0v.626A.44.44,0,0,0,289.429,381.524Z" transform="translate(-278.996 -366.623)" fill="#555"/>
  <path id="パス_79" data-name="パス 79" d="M215.094,336.037c.594,0,1.077-.343,1.077-.766s-.483-.765-1.077-.765a1.418,1.418,0,0,0-.564.115,1.859,1.859,0,0,1-.779-.444.1.1,0,0,0-.13-.01.1.1,0,0,0-.02.128,2.9,2.9,0,0,0,.559.6.6.6,0,0,0-.144.375c0,.423.483.766,1.078.766Z" transform="translate(-207.317 -322.972)" fill="#555"/>
  <path id="パス_80" data-name="パス 80" d="M270.7,432.67a.137.137,0,0,0,.01.108,1.931,1.931,0,0,0,1.287.947l.022,0a.082.082,0,0,0,.022,0,1.931,1.931,0,0,0,1.288-.947.139.139,0,0,0,.01-.108.137.137,0,0,0-.072-.082l-.922-.442a.138.138,0,0,0-.168.04l-.158.209-.159-.209a.138.138,0,0,0-.168-.04l-.921.442A.142.142,0,0,0,270.7,432.67Z" transform="translate(-261.588 -416.217)" fill="#555"/>
  <path id="パス_81" data-name="パス 81" d="M209.3,309.5a3.8,3.8,0,0,0-2.685-.233.329.329,0,1,0,.183.633,3.192,3.192,0,0,1,2.19.18.335.335,0,0,0,.155.039.33.33,0,0,0,.157-.619Z" transform="translate(-200.459 -299.158)" fill="#555"/>
  <path id="パス_82" data-name="パス 82" d="M331.771,334.285a.1.1,0,0,0-.021-.128.1.1,0,0,0-.13.01,1.852,1.852,0,0,1-.779.444,1.414,1.414,0,0,0-.564-.115c-.595,0-1.078.343-1.078.765s.483.766,1.078.766,1.078-.343,1.078-.766a.6.6,0,0,0-.144-.375,2.927,2.927,0,0,0,.56-.6Z" transform="translate(-317.189 -322.962)" fill="#555"/>
  <path id="パス_83" data-name="パス 83" d="M329,309.672a.329.329,0,0,0-.225-.407,3.8,3.8,0,0,0-2.685.233.33.33,0,0,0,.157.619.334.334,0,0,0,.154-.039,3.189,3.189,0,0,1,2.19-.18.328.328,0,0,0,.408-.226Z" transform="translate(-314.06 -299.158)" fill="#555"/>
  <path id="パス_84" data-name="パス 84" d="M105.589,131.327a2.356,2.356,0,0,1-2.66-.175l-.546.228a9.559,9.559,0,0,1-.594,1.539c-.058.127-.107.227-.129.293a2.969,2.969,0,0,1-.438.889c2.1,2.247,2.05,3.714,2.049,3.728a.411.411,0,0,0,0,.055l.012.09c0,.01-.006.018-.006.029a21.143,21.143,0,0,1-.558,4.8c-.43,1.157-2.905,3.425-4.877,3.425s-4.449-2.268-4.879-3.425a22.392,22.392,0,0,1-.621-4.8l.019-.172c0-.016-.05-1.5,2.078-3.761a3.019,3.019,0,0,1-.417-.862c-.021-.062-.069-.161-.128-.288-.4-.859-1.195-2.589-.484-4.038-5.85,1.964-6,11.122-6,11.225a.274.274,0,0,0,.082.2.283.283,0,0,0,.2.08h1.266a2.4,2.4,0,0,0,.207.829,4.6,4.6,0,0,0,2.455,2.132c.681,1.717,3.614,4.305,6.224,4.305s5.541-2.586,6.223-4.308a4.583,4.583,0,0,0,2.447-2.13,2.393,2.393,0,0,0,.207-.828H108a.282.282,0,0,0,.2-.08.275.275,0,0,0,.082-.2c0-.078-.089-5.373-2.69-8.779ZM90.342,140.7a1.174,1.174,0,0,1-.092-.318h.8c.044.427.1.87.166,1.3a2.66,2.66,0,0,1-.878-.977Zm14.993,0a2.642,2.642,0,0,1-.88.979c.063-.426.113-.869.151-1.3h.822A1.186,1.186,0,0,1,105.334,140.7Z" transform="translate(-87.41 -127.648)" fill="#555"/>
  <path id="パス_85" data-name="パス 85" d="M219.559,108.846a1.542,1.542,0,0,0,1.44,1.279h3.132a1.541,1.541,0,0,0,1.44-1.279,3.948,3.948,0,0,1,.162-.386,8.475,8.475,0,0,0,.583-1.616l1.371-.583a1.672,1.672,0,0,0,.583.457,1.709,1.709,0,1,0-.963-1.387l-.912.388a2.013,2.013,0,0,0-.3-.868c-.528-.818-1.717-1.233-3.532-1.233s-3,.415-3.531,1.233c-.744,1.153,0,2.812.363,3.609A3.925,3.925,0,0,1,219.559,108.846Z" transform="translate(-211.924 -103.497)" fill="#555"/>
</svg>
