<svg id="グループ_162" data-name="グループ 162" xmlns="http://www.w3.org/2000/svg" width="50" height="50" viewBox="0 0 50 50">
  <rect id="長方形_121" data-name="長方形 121" width="50" height="50" fill="#555"/>
  <path id="Icon_awesome-twitter" data-name="Icon awesome-twitter" d="M27.143,9.5c.019.269.019.538.019.806,0,8.2-6.239,17.641-17.641,17.641A17.522,17.522,0,0,1,0,25.168a12.827,12.827,0,0,0,1.5.077,12.417,12.417,0,0,0,7.7-2.649,6.211,6.211,0,0,1-5.8-4.3,7.819,7.819,0,0,0,1.171.1A6.558,6.558,0,0,0,6.2,18.181,6.2,6.2,0,0,1,1.228,12.1v-.077a6.244,6.244,0,0,0,2.8.787,6.21,6.21,0,0,1-1.92-8.293A17.624,17.624,0,0,0,14.9,11a7,7,0,0,1-.154-1.42A6.206,6.206,0,0,1,25.473,5.339a12.207,12.207,0,0,0,3.935-1.5,6.184,6.184,0,0,1-2.726,3.417,12.43,12.43,0,0,0,3.57-.96A13.328,13.328,0,0,1,27.143,9.5Z" transform="translate(10.263 9.655)" fill="#fff"/>
</svg>
