<svg xmlns="http://www.w3.org/2000/svg" width="50" height="49.999" viewBox="0 0 50 49.999">
  <path id="Icon_awesome-book-reader" data-name="Icon awesome-book-reader" d="M34.374,9.375A9.375,9.375,0,1,0,25,18.75,9.375,9.375,0,0,0,34.374,9.375ZM22.811,23.544C17.017,20,7.633,19.023,2.91,18.755A2.7,2.7,0,0,0,0,21.4V43.157A2.686,2.686,0,0,0,2.587,45.8c4.264.224,12.889,1.043,18.851,4.046a1.359,1.359,0,0,0,2-1.159V24.664a1.3,1.3,0,0,0-.627-1.119Zm24.278-4.79c-4.722.268-14.107,1.243-19.9,4.79a1.324,1.324,0,0,0-.626,1.136v24a1.363,1.363,0,0,0,2.006,1.162c5.961-3,14.582-3.819,18.844-4.043A2.687,2.687,0,0,0,50,43.159V21.4A2.7,2.7,0,0,0,47.089,18.755Z"/>
</svg>
