<svg xmlns="http://www.w3.org/2000/svg" width="50" height="50" viewBox="0 0 50 50"><path d="M42.568,11.981H16.217a4.537,4.537,0,0,0-4.531,4.531V34.861a4.527,4.527,0,0,0,4.531,4.519H31.3a1.3,1.3,0,0,1,.9.381l7.492,6.909c.416.4,1.106.238,1.106-.345V40.307c0-.713.452-.939,1.165-.939h.119c2.5,0,5.006-2.01,5.006-4.519V16.512A4.512,4.512,0,0,0,42.568,11.981Z" transform="translate(2.913 3.109)"/><path d="M18.406,15.017H39.5V7.252a3.877,3.877,0,0,0-3.877-3.877H7.252A3.877,3.877,0,0,0,3.375,7.252V26.9a3.877,3.877,0,0,0,3.877,3.877h7.266V18.893A3.9,3.9,0,0,1,18.406,15.017Z" transform="translate(-3.375 -3.375)"/></svg>