<svg xmlns="http://www.w3.org/2000/svg" width="50" height="50" viewBox="0 0 50 50"><path d="M51.125,12.964V14.75a.865.865,0,0,1-.833.893h-2.5v1.339a1.3,1.3,0,0,1-1.25,1.339H5.708a1.3,1.3,0,0,1-1.25-1.339V15.643h-2.5a.865.865,0,0,1-.833-.893V12.964a.9.9,0,0,1,.515-.825L25.806,2.318a.782.782,0,0,1,.637,0L50.61,12.139A.9.9,0,0,1,51.125,12.964Zm-2.5,33.929h-45a2.594,2.594,0,0,0-2.5,2.679v1.786a.865.865,0,0,0,.833.893H50.292a.865.865,0,0,0,.833-.893V49.571A2.594,2.594,0,0,0,48.625,46.893ZM9.458,20.107V41.536H5.708a1.3,1.3,0,0,0-1.25,1.339v2.232H47.792V42.875a1.3,1.3,0,0,0-1.25-1.339h-3.75V20.107H36.125V41.536H29.458V20.107H22.792V41.536H16.125V20.107Z" transform="translate(-1.125 -2.25)" fill="#333"/></svg>