<?xml version="1.0" encoding="utf-8"?>
<!-- Generator: Adobe Illustrator 15.1.0, SVG Export Plug-In  -->
<!DOCTYPE svg PUBLIC "-//W3C//DTD SVG 1.1//EN" "http://www.w3.org/Graphics/SVG/1.1/DTD/svg11.dtd" [
	<!ENTITY ns_flows "http://ns.adobe.com/Flows/1.0/">
]>
<svg version="1.1"
	 xmlns="http://www.w3.org/2000/svg" xmlns:xlink="http://www.w3.org/1999/xlink" xmlns:a="http://ns.adobe.com/AdobeSVGViewerExtensions/3.0/"
	 x="0px" y="0px" width="21px" height="21px" viewBox="-0.5 -0.238 21 21" enable-background="new -0.5 -0.238 21 21"
	 xml:space="preserve">
<defs>
</defs>
<path fill="#523E1B" d="M18.505,5.524h-3.179c1.033-0.373,1.91-1.107,2.238-1.981c0.209-0.563,0.377-1.669-0.865-2.75
	c-0.58-0.504-1.209-0.76-1.873-0.76c-2.35,0-4.295,3.219-5.047,4.657C9.033,3.256,7.08,0,4.723,0C4.059,0,3.428,0.223,2.85,0.727
	c-1.244,1.081-1.076,2.12-0.865,2.683C2.455,4.67,4.061,5.524,5.713,5.524H1.494C0.67,5.524,0,6.194,0,7.019v3.012
	c0,0.656,0.428,1.208,1.018,1.41C1.012,11.467,1,11.495,1,11.524v6.967c0,1.104,0.934,2.033,2.039,2.033h13.924
	c1.105,0,2.037-0.93,2.037-2.033v-6.967c0-0.029-0.012-0.057-0.018-0.084C19.572,11.239,20,10.687,20,10.03V7.019
	C20,6.194,19.33,5.524,18.505,5.524z M14.826,1.118c0.4,0,0.779,0.162,1.16,0.493c0.57,0.497,0.76,1.02,0.56,1.551
	c-0.317,0.851-1.501,1.542-2.69,1.542l0,0L13.461,4.7c-1.018,0-1.898,0.075-2.533,0.152C11.781,3.325,13.339,1.118,14.826,1.118z
	 M5.643,4.705C4.523,4.705,3.314,3.998,3,3.162C2.803,2.63,2.99,2.108,3.563,1.611c0.381-0.331,0.76-0.493,1.16-0.493
	c1.484,0,3.043,2.207,3.898,3.734C7.984,4.775,7.105,4.7,6.087,4.7L5.643,4.705z M1,7.019c0-0.272,0.223-0.494,0.494-0.494h7.668v4
	H1.494C1.223,10.524,1,10.303,1,10.03V7.019z M3.039,19.524C2.486,19.524,2,19.042,2,18.491v-6.967h7.162v8H3.039z M17.873,18.491
	c0,0.551-0.484,1.033-1.037,1.033h-6.527v-8h7.564V18.491z M18.873,10.03c0,0.272-0.221,0.494-0.494,0.494h-8.07v-4h8.07
	c0.273,0,0.494,0.222,0.494,0.494V10.03z"/>
</svg>
