<?xml version="1.0" encoding="utf-8"?>
<!-- Generator: Adobe Illustrator 15.1.0, SVG Export Plug-In  -->
<!DOCTYPE svg PUBLIC "-//W3C//DTD SVG 1.1//EN" "http://www.w3.org/Graphics/SVG/1.1/DTD/svg11.dtd" [
	<!ENTITY ns_flows "http://ns.adobe.com/Flows/1.0/">
]>
<svg version="1.1"
	 xmlns="http://www.w3.org/2000/svg" xmlns:xlink="http://www.w3.org/1999/xlink" xmlns:a="http://ns.adobe.com/AdobeSVGViewerExtensions/3.0/"
	 x="0px" y="0px" width="23px" height="23px" viewBox="0 -0.473 23 23" enable-background="new 0 -0.473 23 23"
	 xml:space="preserve">
<defs>
</defs>
<path fill="#523E1B" d="M9.205,5.593c0.316,0,0.572-0.255,0.572-0.571S9.521,4.447,9.205,4.447S8.633,4.705,8.633,5.021
	S8.889,5.593,9.205,5.593z"/>
<path fill="#523E1B" d="M13.916,5.593c0.316,0,0.572-0.255,0.572-0.571s-0.256-0.574-0.572-0.574s-0.572,0.258-0.572,0.574
	S13.6,5.593,13.916,5.593z"/>
<path fill="#523E1B" d="M9.205,9.954c0.316,0,0.572-0.257,0.572-0.573c0-0.314-0.256-0.572-0.572-0.572S8.633,9.066,8.633,9.381
	C8.633,9.697,8.889,9.954,9.205,9.954z"/>
<path fill="#523E1B" d="M13.916,9.954c0.316,0,0.572-0.257,0.572-0.573c0-0.314-0.256-0.572-0.572-0.572s-0.572,0.258-0.572,0.572
	C13.344,9.697,13.6,9.954,13.916,9.954z"/>
<path fill="#523E1B" d="M22.025,6.566c-0.627-0.627-1.461-0.974-2.361-0.974l-0.281-0.106V3.855c0-1.029-0.4-1.997-1.129-2.727
	C17.527,0.402,16.559,0,15.529,0H7.471C6.439,0,5.473,0.402,4.746,1.129C4.018,1.858,3.617,2.826,3.617,3.857L3.502,5.597
	L3.324,5.593c-0.889,0-1.725,0.347-2.35,0.974C0.346,7.195,0,8.029,0,8.919c0,0.567,0.148,1.134,0.428,1.63
	c0.258,0.459,0.627,0.855,1.119,1.209c0.016,0.057,0.041,0.177,0.061,0.371c0.02,0.215,0.033,0.522,0.033,0.947v2.609
	c0,0.809,0.314,1.57,0.887,2.145c0.572,0.571,1.334,0.886,2.152,0.886h0.541h0.469l-0.65,2.661c-0.072,0.294,0.107,0.59,0.402,0.661
	c0.043,0.011,0.088,0.017,0.131,0.017c0.246,0,0.471-0.17,0.531-0.419l0.715-2.92h0.295h8.879h0.229l0.715,2.92
	c0.061,0.249,0.283,0.419,0.531,0.419c0.043,0,0.086-0.006,0.131-0.017c0.293-0.071,0.473-0.367,0.402-0.661l-0.65-2.661h0.541
	h0.441c0.809,0,1.568-0.314,2.141-0.886c0.572-0.574,0.887-1.336,0.887-2.145v-2.609c0-0.371,0.01-0.653,0.027-0.861
	c0.012-0.159,0.029-0.277,0.043-0.361l0.07-0.155c0.441-0.292,0.814-0.688,1.074-1.149C22.854,10.053,23,9.486,23,8.919
	C23,8.029,22.654,7.193,22.025,6.566z M4.586,3.855c0-0.772,0.301-1.497,0.846-2.04c0.543-0.545,1.27-0.846,2.039-0.848h8.059
	c0.769,0.002,1.494,0.303,2.039,0.848c0.545,0.543,0.846,1.268,0.848,2.042L18.35,5.87c-0.386,0.168-0.73,0.402-1.025,0.696
	c-0.629,0.629-0.975,1.463-0.975,2.353v3.743c0,0.169-0.066,0.33-0.188,0.453c-0.123,0.122-0.279,0.186-0.451,0.186H7.289
	c-0.172,0-0.328-0.065-0.453-0.188c-0.119-0.121-0.186-0.28-0.186-0.451V8.919c0-0.89-0.346-1.724-0.975-2.353
	c-0.279-0.279-0.617-0.519-1.09-0.798V3.855z M21.73,10.072c-0.191,0.344-0.471,0.634-0.803,0.844
	c-0.023,0.015-0.063,0.039-0.107,0.078c-0.041,0.034-0.082,0.079-0.119,0.124c-0.063,0.082-0.114,0.18-0.153,0.294
	c-0.054,0.163-0.089,0.348-0.118,0.621c-0.025,0.266-0.039,0.6-0.039,1.043v2.609c0,0.552-0.213,1.07-0.604,1.458
	c-0.391,0.391-0.908,0.604-1.459,0.604H4.671c-0.55,0-1.067-0.214-1.458-0.604c-0.389-0.388-0.604-0.906-0.604-1.458v-2.609
	c0-0.386-0.012-0.692-0.029-0.939c-0.016-0.182-0.035-0.332-0.061-0.465c-0.041-0.213-0.094-0.357-0.176-0.488
	c-0.039-0.063-0.092-0.127-0.146-0.176c-0.053-0.047-0.1-0.077-0.129-0.096c-0.33-0.206-0.607-0.498-0.797-0.84
	C1.07,9.718,0.969,9.329,0.969,8.919c0-0.631,0.246-1.221,0.691-1.666c0.443-0.445,1.035-0.69,1.664-0.69
	c0.631,0,1.222,0.245,1.666,0.69C5.436,7.698,5.682,8.29,5.682,8.919v3.743c0,0.423,0.172,0.837,0.471,1.137
	c0.299,0.299,0.713,0.47,1.137,0.47h8.422c0.424,0,0.837-0.171,1.137-0.47c0.299-0.3,0.471-0.714,0.471-1.137V8.919
	c0-0.631,0.246-1.221,0.691-1.666s1.036-0.69,1.666-0.69c0.629,0,1.221,0.245,1.666,0.69s0.689,1.035,0.689,1.666
	C22.031,9.329,21.93,9.718,21.73,10.072z"/>
</svg>
