<?xml version="1.0" encoding="utf-8"?>
<!-- Generator: Adobe Illustrator 15.1.0, SVG Export Plug-In  -->
<!DOCTYPE svg PUBLIC "-//W3C//DTD SVG 1.1//EN" "http://www.w3.org/Graphics/SVG/1.1/DTD/svg11.dtd" [
	<!ENTITY ns_flows "http://ns.adobe.com/Flows/1.0/">
]>
<svg version="1.1"
	 xmlns="http://www.w3.org/2000/svg" xmlns:xlink="http://www.w3.org/1999/xlink" xmlns:a="http://ns.adobe.com/AdobeSVGViewerExtensions/3.0/"
	 x="0px" y="0px" width="25px" height="17px" viewBox="0 0 25 17" enable-background="new 0 0 25 17" xml:space="preserve">
<defs>
</defs>
<path fill="#523E1B" d="M24.5,8h-1.723c-0.131,0-0.258,0.052-0.352,0.145L21.5,9.062V8h1C22.777,8,23,7.776,23,7.5S22.777,7,22.5,7
	h-0.568c0.004-0.097-0.014-0.193-0.068-0.281c-1.277-1.996-4.604-3.361-8.404-3.52C13.484,3.138,13.5,3.07,13.5,3V1
	C13.777,1,14,0.776,14,0.5S13.777,0,13.5,0h-3C10.225,0,10,0.224,10,0.5S10.225,1,10.5,1h2v2c0,0.063,0.016,0.12,0.035,0.176
	C8.445,3.22,4.846,4.66,3.545,6.798C3.505,6.861,3.486,6.931,3.477,7H2.5C2.225,7,2,7.224,2,7.5S2.225,8,2.5,8h-2
	C0.225,8,0,8.224,0,8.5S0.225,9,0.5,9h1.941l0.898,1.083c0.045,0.055,0.102,0.094,0.161,0.124V16.5C3.5,16.776,3.725,17,4,17h17
	c0.277,0,0.5-0.224,0.5-0.5v-6.236c0.002,0,0.002,0,0.004,0c0.126,0,0.253-0.048,0.352-0.145L22.984,9H24.5
	C24.777,9,25,8.776,25,8.5S24.777,8,24.5,8z M12.727,4.167c3.594,0,6.764,1.132,8.084,2.833H4.648
	C5.961,5.32,9.176,4.167,12.727,4.167z M3.061,8.181C2.967,8.066,2.824,8,2.676,8H3.5v0.711L3.061,8.181z M20.5,16h-16V8h16V16z"/>
</svg>
