<?xml version="1.0" encoding="utf-8"?>
<!-- Generator: Adobe Illustrator 15.1.0, SVG Export Plug-In . SVG Version: 6.00 Build 0)  -->
<!DOCTYPE svg PUBLIC "-//W3C//DTD SVG 1.1//EN" "http://www.w3.org/Graphics/SVG/1.1/DTD/svg11.dtd">
<svg version="1.1" id="レイヤー_1" xmlns="http://www.w3.org/2000/svg" xmlns:xlink="http://www.w3.org/1999/xlink" x="0px"
	 y="0px" width="70px" height="70px" viewBox="0 0 70 70" enable-background="new 0 0 70 70" xml:space="preserve">
<path fill="#766539" d="M70,35c0-3.12-1.909-5.796-5.446-7.921c2.486-4.509,1.879-7.638,0.758-9.58
	c-1.56-2.701-4.551-4.064-8.675-4.136c-0.072-4.125-1.435-7.116-4.137-8.676c-1.943-1.122-5.072-1.728-9.579,0.758
	C40.796,1.909,38.121,0,35.001,0C35,0,35,0,34.999,0c-2.242,0-5.255,1.04-7.916,5.446c-4.51-2.488-7.64-1.88-9.582-0.758
	c-1.942,1.121-4.033,3.528-4.135,8.676C8.218,13.464,5.811,15.556,4.69,17.5c-1.121,1.941-1.729,5.07,0.757,9.579
	C1.91,29.203,0,31.879,0,35c0,3.12,1.91,5.796,5.446,7.921C2.962,47.429,3.569,50.558,4.69,52.5c1.559,2.7,4.556,4.052,8.678,4.125
	c0.1,5.154,2.191,7.563,4.134,8.684c0.952,0.55,2.188,0.977,3.732,0.977c1.604,0,3.548-0.48,5.842-1.742
	c2.125,3.542,4.803,5.456,7.925,5.457c3.123-0.001,5.799-1.914,7.925-5.457c2.293,1.262,4.238,1.742,5.842,1.742
	c1.544,0,2.78-0.427,3.732-0.977c1.943-1.122,4.034-3.53,4.134-8.684c4.121-0.073,7.119-1.425,8.678-4.125
	c1.559-2.702,1.244-5.973-0.755-9.581C68.092,40.794,70,38.119,70,35z M64.332,18.065c1.319,2.284,1.043,5.169-0.767,8.458
	c-2.311-1.224-5.212-2.241-8.632-3.031c1.024-3.353,1.593-6.37,1.69-8.981C60.317,14.576,62.988,15.739,64.332,18.065z
	 M47.324,35.13c-0.003,1.072-0.019,2.125-0.047,3.157c-0.497,0.92-1.017,1.852-1.558,2.794c-0.576,0.996-1.154,1.961-1.732,2.904
	c-0.941,0.578-1.906,1.155-2.901,1.731c-0.942,0.541-1.874,1.06-2.793,1.557c-1.075,0.03-2.173,0.046-3.292,0.048
	c-1.118-0.002-2.213-0.018-3.287-0.048c-0.933-0.504-1.879-1.032-2.835-1.582c-0.982-0.569-1.936-1.139-2.866-1.71
	c-0.539-0.878-1.077-1.778-1.614-2.703c-0.583-1.011-1.138-2.008-1.672-2.994c-0.029-1.031-0.044-2.083-0.047-3.155
	c0-1.166,0.018-2.305,0.048-3.425c0.499-0.92,1.018-1.851,1.559-2.793c0.575-0.994,1.152-1.958,1.729-2.899
	c0.926-0.569,1.876-1.137,2.854-1.703c0.959-0.551,1.906-1.08,2.842-1.585c1.074-0.03,2.171-0.046,3.29-0.048
	c1.12,0.002,2.217,0.018,3.293,0.048c0.936,0.507,1.883,1.035,2.841,1.585c0.978,0.567,1.929,1.135,2.854,1.704
	c0.577,0.94,1.153,1.904,1.729,2.897c0.541,0.942,1.059,1.873,1.558,2.793C47.306,32.823,47.323,33.964,47.324,35.13z
	 M46.771,28.477l0.002-0.001c-0.025-0.043-0.051-0.085-0.076-0.129c-0.054-0.095-0.105-0.188-0.16-0.282l-0.004,0.002
	c-0.139-0.239-0.278-0.476-0.418-0.712c0.336,0.217,0.67,0.434,0.998,0.651c0.023,0.391,0.044,0.788,0.064,1.187
	C47.042,28.955,46.908,28.717,46.771,28.477z M44.81,25.19c-0.464-0.753-0.929-1.486-1.395-2.204
	c1.13,0.084,2.228,0.186,3.295,0.304c0.118,1.068,0.22,2.167,0.304,3.298C46.297,26.122,45.564,25.656,44.81,25.19z M42.658,23.893
	c-0.241-0.142-0.482-0.285-0.727-0.427l0.002-0.003c-0.07-0.041-0.139-0.078-0.209-0.119c-0.068-0.04-0.134-0.079-0.202-0.119
	l-0.002,0.003c-0.239-0.137-0.477-0.271-0.715-0.406c0.401,0.02,0.801,0.041,1.195,0.065C42.22,23.221,42.438,23.553,42.658,23.893z
	 M38.593,21.6c-0.779-0.42-1.55-0.823-2.313-1.213c1.026-0.494,2.034-0.958,3.021-1.391c0.636,0.869,1.272,1.774,1.909,2.712
	C40.353,21.664,39.483,21.626,38.593,21.6z M35.961,21.553C35.682,21.551,36,21.548,35,21.547v-0.003c0,0,0.08,0.001,0,0.002
	c-0.08,0,0-0.002,0-0.002v0.003c-1,0.001-0.67,0.004-0.945,0.006c0.358-0.184,0.597-0.366,0.951-0.542
	C35.363,21.189,35.601,21.368,35.961,21.553z M31.41,21.6c-0.89,0.026-1.76,0.064-2.618,0.108c0.64-0.943,1.28-1.853,1.918-2.725
	c0.989,0.436,1.997,0.903,3.023,1.4C32.967,20.774,32.194,21.178,31.41,21.6z M29.197,22.823c-0.239,0.135-0.477,0.27-0.717,0.407
	l-0.001-0.003c-0.06,0.035-0.118,0.069-0.177,0.104c-0.079,0.045-0.155,0.087-0.234,0.133l0.002,0.003
	c-0.244,0.142-0.484,0.284-0.725,0.426c0.219-0.341,0.438-0.673,0.658-1.005C28.396,22.864,28.796,22.843,29.197,22.823z
	 M25.192,25.19c-0.756,0.466-1.492,0.933-2.212,1.4c0.082-1.13,0.181-2.23,0.297-3.299c1.071-0.119,2.175-0.221,3.311-0.305
	C26.121,23.704,25.656,24.437,25.192,25.19z M23.895,27.343c-0.142,0.241-0.284,0.481-0.425,0.725l-0.004-0.002
	c-0.055,0.095-0.106,0.188-0.16,0.282c-0.025,0.044-0.051,0.085-0.076,0.129l0.002,0.001c-0.14,0.244-0.276,0.486-0.413,0.728
	c0.02-0.405,0.043-0.803,0.067-1.202C23.22,27.783,23.553,27.563,23.895,27.343z M21.603,31.404
	c-0.422,0.783-0.827,1.556-1.218,2.322c-0.496-1.024-0.963-2.031-1.398-3.019c0.872-0.638,1.78-1.277,2.723-1.917
	C21.665,29.648,21.628,30.518,21.603,31.404z M21.556,34.037C21.553,34.317,21.55,34,21.549,35h-0.006c0,0,0.457,0.025,0.457,0.159
	c0,0.026,0,0.051,0,0.077h-0.226c0.001,0.28-0.11,0.558-0.107,0.835c-0.186-0.361-0.421-0.658-0.6-1.015
	C21.247,34.698,21.369,34.4,21.556,34.037z M21.601,38.586c0.026,0.891,0.064,1.762,0.108,2.621
	c-0.942-0.64-1.851-1.279-2.723-1.917c0.436-0.989,0.903-1.996,1.399-3.021C20.775,37.033,21.179,37.805,21.601,38.586z
	 M22.824,40.798c0.135,0.24,0.271,0.479,0.409,0.72l-0.005,0.003c0.063,0.109,0.126,0.214,0.189,0.322
	c0.017,0.03,0.033,0.059,0.05,0.089l0.001-0.001c0.141,0.243,0.282,0.482,0.423,0.721c-0.34-0.219-0.671-0.438-1.003-0.656
	C22.865,41.601,22.844,41.2,22.824,40.798z M25.189,44.805c0.465,0.754,0.931,1.489,1.397,2.208
	c-1.13-0.084-2.229-0.186-3.296-0.304c-0.118-1.068-0.22-2.167-0.304-3.298C23.704,43.876,24.437,44.341,25.189,44.805z
	 M27.342,46.102c0.241,0.142,0.483,0.285,0.727,0.427l-0.002,0.003c0.073,0.042,0.145,0.081,0.218,0.124
	c0.065,0.038,0.129,0.076,0.195,0.114l0.002-0.003c0.243,0.139,0.482,0.273,0.724,0.409c-0.404-0.02-0.807-0.041-1.204-0.065
	C27.782,46.777,27.562,46.444,27.342,46.102z M31.423,48.399c0.777,0.418,1.545,0.822,2.304,1.209
	c-1.028,0.495-2.037,0.96-3.027,1.394c-0.635-0.869-1.271-1.773-1.909-2.712C29.653,48.335,30.528,48.373,31.423,48.399z
	 M34.058,48.446C34.332,48.448,34,48.451,35,48.452v0.003c0,0-0.08-0.001,0-0.002c0.08,0,0,0.002,0,0.002v-0.003
	c1-0.001,0.671-0.003,0.947-0.006c-0.356,0.183-0.593,0.364-0.944,0.539C34.65,48.81,34.414,48.628,34.058,48.446z M38.583,48.399
	c0.893-0.026,1.766-0.064,2.627-0.109c-0.637,0.938-1.273,1.843-1.908,2.711c-0.989-0.434-1.997-0.898-3.024-1.393
	C37.036,49.222,37.805,48.817,38.583,48.399z M40.8,47.176c0.241-0.136,0.48-0.27,0.722-0.408l0.001,0.002
	c0.053-0.031,0.104-0.062,0.157-0.092c0.085-0.049,0.168-0.094,0.254-0.144l-0.002-0.004c0.243-0.142,0.484-0.283,0.724-0.425
	c-0.219,0.341-0.438,0.673-0.658,1.006C41.604,47.135,41.203,47.156,40.8,47.176z M44.81,44.809c0.753-0.465,1.487-0.93,2.206-1.396
	c-0.084,1.13-0.187,2.229-0.304,3.296c-1.067,0.118-2.167,0.22-3.297,0.304C43.88,46.295,44.345,45.562,44.81,44.809z
	 M46.105,42.656c0.143-0.241,0.285-0.482,0.427-0.727l0.004,0.002c0.055-0.095,0.106-0.188,0.16-0.283
	c0.025-0.043,0.05-0.085,0.076-0.128l-0.002-0.001c0.138-0.241,0.273-0.479,0.408-0.719c-0.02,0.401-0.041,0.801-0.065,1.196
	C46.78,42.217,46.447,42.437,46.105,42.656z M48.401,38.588c0.422-0.784,0.825-1.556,1.215-2.321c0.497,1.026,0.964,2.034,1.4,3.023
	c-0.872,0.638-1.781,1.277-2.724,1.917C48.337,40.35,48.375,39.479,48.401,38.588z M48.449,35.942
	C48.451,35.669,48.454,36,48.455,35H48c0,0,0,0.164,0,0.127C48,35.004,48.458,35,48.458,35h-0.005c-0.001-1-0.004-0.682-0.006-0.962
	c0.186,0.361,0.364,0.6,0.543,0.956C48.813,35.348,48.632,35.585,48.449,35.942z M48.4,31.405c-0.026-0.885-0.063-1.751-0.108-2.605
	c0.938,0.639,1.839,1.277,2.706,1.913c-0.431,0.983-0.893,1.985-1.384,3.005C49.224,32.956,48.82,32.185,48.4,31.405z
	 M48.211,27.372c-0.089-1.36-0.203-2.673-0.339-3.945c1.985,0.247,3.854,0.552,5.592,0.914c-0.556,1.685-1.226,3.456-2.004,5.298
	C50.425,28.885,49.345,28.129,48.211,27.372z M47.743,22.257c-0.26-2.165-0.591-4.19-0.986-6.071
	c3.272-1.004,6.201-1.56,8.718-1.661c-0.102,2.517-0.657,5.447-1.661,8.718C51.933,22.849,49.908,22.518,47.743,22.257z
	 M46.574,22.128c-1.271-0.135-2.583-0.25-3.941-0.338c-0.755-1.132-1.51-2.215-2.264-3.252c1.84-0.777,3.608-1.446,5.292-2.001
	C46.021,18.274,46.326,20.143,46.574,22.128z M39.669,17.591c-1.31-1.75-2.613-3.348-3.904-4.79
	c1.569-1.687,3.113-3.133,4.617-4.304c0.717-0.559,1.418-1.047,2.106-1.479c1.173,2.233,2.159,5.052,2.927,8.394
	C43.59,16.01,41.673,16.735,39.669,17.591z M38.609,18.057c-1.175,0.521-2.376,1.081-3.604,1.687
	c-1.227-0.606-2.429-1.169-3.607-1.693c1.21-1.606,2.413-3.073,3.604-4.408C36.194,14.979,37.398,16.447,38.609,18.057z
	 M30.336,17.587c-2.008-0.86-3.934-1.591-5.771-2.194c0.515-2.246,1.129-4.27,1.846-6.036c0.344-0.848,0.71-1.625,1.092-2.347
	c0.691,0.433,1.396,0.923,2.117,1.485c1.504,1.171,3.049,2.618,4.618,4.306C32.947,14.242,31.645,15.838,30.336,17.587z
	 M29.647,18.52c-0.758,1.042-1.518,2.131-2.277,3.27c-1.367,0.089-2.686,0.205-3.964,0.341c0.245-1.999,0.553-3.873,0.917-5.627
	C26.022,17.064,27.797,17.733,29.647,18.52z M22.255,22.258c-2.173,0.261-4.206,0.593-6.092,0.99
	c-0.679-2.206-1.16-4.27-1.423-6.161c-0.126-0.906-0.186-1.751-0.216-2.566c0.814,0.03,1.659,0.09,2.565,0.216
	c1.888,0.263,3.949,0.743,6.152,1.42C22.844,18.051,22.514,20.087,22.255,22.258z M22.124,23.427
	c-0.134,1.273-0.247,2.586-0.335,3.942c-1.138,0.759-2.225,1.518-3.267,2.275c-0.783-1.842-1.449-3.608-2.008-5.3
	C18.257,23.981,20.131,23.675,22.124,23.427z M17.59,30.333c-1.749,1.309-3.346,2.611-4.786,3.901
	c-1.688-1.569-3.134-3.113-4.305-4.617c-0.559-0.718-1.046-1.419-1.478-2.106c2.23-1.172,5.046-2.157,8.383-2.924
	C16.005,26.417,16.733,28.334,17.59,30.333z M18.053,31.396c0.523,1.176,1.084,2.376,1.69,3.602
	c-0.606,1.227-1.168,2.427-1.691,3.604c-1.606-1.21-3.073-2.412-4.408-3.603C14.979,33.808,16.446,32.605,18.053,31.396z
	 M17.589,39.664c-0.857,2-1.585,3.918-2.186,5.749c-3.337-0.768-6.153-1.752-8.383-2.924c0.432-0.688,0.919-1.389,1.479-2.107
	c1.171-1.504,2.618-3.049,4.306-4.618C14.244,37.053,15.84,38.355,17.589,39.664z M18.521,40.352
	c1.042,0.758,2.13,1.518,3.269,2.277c0.089,1.36,0.203,2.672,0.339,3.944c-1.995-0.249-3.872-0.555-5.616-0.919
	C17.073,43.962,17.739,42.194,18.521,40.352z M22.259,47.742c0.261,2.165,0.591,4.189,0.986,6.07
	c-3.272,1.004-6.203,1.56-8.72,1.662c0.03-0.814,0.09-1.658,0.216-2.563c0.263-1.89,0.744-3.954,1.422-6.159
	C18.051,47.148,20.084,47.48,22.259,47.742z M23.428,47.871c1.271,0.135,2.583,0.25,3.942,0.338c0.755,1.132,1.51,2.215,2.264,3.251
	c-1.84,0.777-3.608,1.446-5.292,2.001C23.98,51.725,23.675,49.856,23.428,47.871z M30.33,52.403
	c1.311,1.752,2.615,3.351,3.907,4.793c-1.568,1.688-3.113,3.134-4.617,4.305c-0.718,0.559-1.419,1.046-2.106,1.478
	c-1.173-2.233-2.159-5.051-2.927-8.393C26.41,53.988,28.329,53.258,30.33,52.403z M31.394,51.943
	c1.175-0.521,2.38-1.088,3.609-1.695c1.228,0.606,2.432,1.173,3.606,1.694c-1.211,1.609-2.416,3.078-3.607,4.414
	C33.809,55.02,32.604,53.551,31.394,51.943z M39.672,52.402c2.001,0.855,3.92,1.585,5.743,2.183
	c-0.768,3.342-1.754,6.161-2.927,8.394c-0.687-0.431-1.389-0.919-2.106-1.478c-1.503-1.171-3.048-2.617-4.617-4.304
	C37.057,55.754,38.361,54.154,39.672,52.402z M40.368,51.46c0.753-1.036,1.509-2.118,2.263-3.25
	c1.359-0.089,2.672-0.203,3.943-0.338c-0.247,1.984-0.552,3.854-0.914,5.591C43.977,52.907,42.208,52.237,40.368,51.46z
	 M47.743,47.742c2.175-0.262,4.208-0.594,6.096-0.991c0.678,2.206,1.159,4.269,1.422,6.159c0.126,0.905,0.186,1.749,0.216,2.563
	c-2.518-0.102-5.448-0.657-8.72-1.662C47.152,51.931,47.483,49.906,47.743,47.742z M47.873,46.572
	c0.135-1.271,0.25-2.584,0.339-3.943c1.139-0.759,2.227-1.519,3.269-2.277c0.783,1.842,1.449,3.609,2.008,5.301
	C51.744,46.018,49.867,46.324,47.873,46.572z M52.413,39.664c1.741-1.303,3.331-2.6,4.766-3.883
	c2.502,2.329,4.445,4.585,5.791,6.712c-2.229,1.169-5.04,2.152-8.371,2.918C53.998,43.582,53.27,41.663,52.413,39.664z
	 M51.95,38.602c-0.523-1.178-1.086-2.38-1.692-3.607c0.603-1.221,1.159-2.414,1.677-3.583c1.603,1.212,3.075,2.416,4.404,3.604
	C55.008,36.201,53.548,37.398,51.95,38.602z M52.407,30.335c0.857-2.005,1.583-3.923,2.182-5.75c3.341,0.768,6.16,1.753,8.392,2.927
	c-0.432,0.687-0.919,1.388-1.478,2.105c-1.173,1.506-2.622,3.053-4.312,4.624C55.754,32.954,54.16,31.649,52.407,30.335z
	 M51.935,5.668c2.327,1.343,3.49,4.015,3.554,7.71c-2.611,0.097-5.627,0.666-8.98,1.69c-0.791-3.421-1.808-6.322-3.032-8.633
	C46.766,4.624,49.652,4.349,51.935,5.668z M34.999,1C35,1,35,1,35.001,1c2.685,0,5.027,1.796,6.93,4.961
	c-0.716,0.447-1.463,1.003-2.244,1.61c-1.528,1.19-3.096,2.672-4.686,4.376c-1.59-1.705-3.158-3.162-4.686-4.353
	c-0.784-0.611-1.535-1.197-2.253-1.646C30.004,2.741,32.364,1,34.999,1z M18.067,5.668c2.283-1.319,5.167-1.045,8.455,0.764
	c-0.398,0.748-0.786,1.579-1.16,2.5c-0.728,1.795-1.353,3.847-1.877,6.118c-2.23-0.682-4.32-1.167-6.24-1.434
	c-0.982-0.137-1.893-0.216-2.737-0.246C14.587,9.624,15.785,6.985,18.067,5.668z M5.67,18.065c1.317-2.283,3.956-3.481,7.704-3.561
	c0.029,0.845,0.108,1.756,0.245,2.738c0.268,1.923,0.754,4.017,1.438,6.251c-3.415,0.791-6.312,1.807-8.62,3.029
	C4.627,23.234,4.351,20.349,5.67,18.065z M1.132,35c0-2.686,1.731-5.028,4.896-6.931c0.447,0.715,0.97,1.462,1.578,2.243
	c1.19,1.529,2.656,3.097,4.361,4.687c-1.706,1.59-3.171,3.158-4.361,4.687c-0.608,0.781-1.131,1.528-1.578,2.244
	C2.862,40.027,1.132,37.685,1.132,35z M5.67,51.934c-1.318-2.283-1.043-5.169,0.766-8.457c2.309,1.222,5.205,2.238,8.62,3.028
	c-0.683,2.233-1.169,4.327-1.437,6.25c-0.136,0.98-0.215,1.889-0.245,2.732C9.682,55.422,7.012,54.259,5.67,51.934z M18.067,64.329
	c-2.284-1.318-3.481-3.961-3.559-7.714c2.612-0.096,5.628-0.662,8.984-1.686c0.791,3.421,1.808,6.322,3.032,8.634
	C23.235,65.372,20.35,65.647,18.067,64.329z M35.001,68.868c-2.688,0-5.031-1.735-6.935-4.906c0.72-0.449,1.464-0.957,2.25-1.568
	c1.528-1.19,3.096-2.655,4.686-4.36c1.59,1.705,3.158,3.169,4.686,4.36c0.786,0.612,1.53,1.119,2.249,1.568
	C40.032,67.133,37.688,68.868,35.001,68.868z M51.935,64.329c-2.283,1.318-5.168,1.043-8.458-0.767
	c1.224-2.312,2.242-5.213,3.033-8.634c3.355,1.025,6.372,1.591,8.984,1.687C55.417,60.368,54.219,63.011,51.935,64.329z
	 M64.332,51.934c-1.343,2.325-4.013,3.488-7.705,3.554c-0.03-0.844-0.108-1.752-0.245-2.733c-0.267-1.922-0.753-4.016-1.437-6.25
	c3.41-0.79,6.302-1.804,8.609-3.023C65.346,46.712,65.675,49.607,64.332,51.934z M63.97,41.931c-1.388-2.21-3.386-4.535-5.944-6.923
	c1.709-1.593,3.177-3.164,4.37-4.695c0.608-0.78,1.13-1.528,1.578-2.243c3.165,1.903,4.895,4.245,4.895,6.93
	C68.868,37.686,67.137,40.028,63.97,41.931z"/>
</svg>
