<?xml version="1.0" encoding="utf-8"?>
<!-- Generator: Adobe Illustrator 15.1.0, SVG Export Plug-In . SVG Version: 6.00 Build 0)  -->
<!DOCTYPE svg PUBLIC "-//W3C//DTD SVG 1.1//EN" "http://www.w3.org/Graphics/SVG/1.1/DTD/svg11.dtd">
<svg version="1.1" id="レイヤー_1" xmlns="http://www.w3.org/2000/svg" xmlns:xlink="http://www.w3.org/1999/xlink" x="0px"
	 y="0px" width="48px" height="48px" viewBox="0 0 48 48" enable-background="new 0 0 48 48" xml:space="preserve">
<g>
	<g id="レイヤー_1_2_">
	</g>
	<g id="フッター_2_">
		<g>
			<g>
				<g>
					<g>
						<path fill="#766539" d="M24.167,33.231c-14.903,0-24.162-3.536-24.162-9.227c0-5.691,9.259-9.228,24.162-9.228v0.774
							C9.962,15.553,0.782,18.871,0.782,24.005c0,5.133,9.18,8.451,23.386,8.451V33.231z"/>
						<path fill="#766539" d="M23.844,33.231v-0.775c14.205,0,23.387-3.316,23.387-8.451c0-5.134-9.182-8.451-23.387-8.451v-0.776
							c14.904,0,24.162,3.535,24.162,9.227C48.006,29.695,38.748,33.231,23.844,33.231z"/>
					</g>
					<g>
						<path fill="#766539" d="M9.407,38.844c-2.952,0-5.087-0.935-6.187-2.84c-2.846-4.928,3.405-12.619,16.313-20.07l0.387,0.671
							C7.618,23.708,1.325,31.17,3.893,35.615c2.565,4.447,12.176,2.729,24.48-4.373l0.387,0.673
							C20.84,36.487,14.095,38.844,9.407,38.844z"/>
						<path fill="#766539" d="M28.479,32.075l-0.387-0.671c6.479-3.741,11.35-7.576,14.086-11.09
							c2.447-3.142,3.119-5.882,1.941-7.921c-1.178-2.04-3.889-2.829-7.83-2.281c-4.412,0.615-10.172,2.915-16.65,6.655
							l-0.388-0.672c6.565-3.79,12.42-6.124,16.93-6.751c5.412-0.756,7.668,1.031,8.609,2.66c0.941,1.63,1.357,4.477-2,8.787
							C39.992,24.384,35.043,28.286,28.479,32.075z"/>
					</g>
					<g>
						<path fill="#766539" d="M14.564,45.457c-1.059,0-1.907-0.293-2.559-0.67c-1.629-0.941-3.414-3.198-2.662-8.609
							c0.627-4.511,2.961-10.365,6.752-16.93l0.672,0.388c-3.74,6.478-6.042,12.237-6.655,16.648
							c-0.548,3.945,0.241,6.653,2.281,7.83c2.039,1.178,4.779,0.508,7.922-1.938c3.514-2.737,7.35-7.608,11.09-14.088l0.674,0.387
							c-3.791,6.565-7.695,11.513-11.288,14.313C18.208,44.801,16.15,45.457,14.564,45.457z"/>
						<path fill="#766539" d="M31.916,28.759l-0.672-0.387c3.74-6.479,6.043-12.235,6.654-16.648c0.549-3.944-0.24-6.652-2.281-7.83
							c-2.041-1.179-4.779-0.507-7.92,1.94c-3.515,2.738-7.351,7.608-11.092,14.087l-0.671-0.388
							c3.79-6.564,7.693-11.514,11.285-14.312c4.311-3.358,7.158-2.941,8.787-2c1.629,0.941,3.414,3.198,2.662,8.608
							C38.039,16.34,35.705,22.194,31.916,28.759z"/>
					</g>
					<g>
						<path fill="#766539" d="M24.005,48.005c-5.691-0.002-9.227-9.261-9.227-24.165h0.775c0.001,14.208,3.319,23.387,8.452,23.387
							c5.135,0,8.454-9.18,8.454-23.386h0.773C33.232,38.744,29.697,48.003,24.005,48.005z"/>
						<path fill="#766539" d="M14.779,24.167c0-7.58,0.904-13.817,2.617-18.038c2.053-5.062,4.726-6.124,6.608-6.124c0,0,0,0,0,0
							c5.692,0,9.227,9.258,9.227,24.161h-0.773c0-14.207-3.318-23.385-8.454-23.385h0c-2.356,0-4.392,1.949-5.89,5.64
							c-1.675,4.129-2.561,10.265-2.56,17.745H14.779z"/>
					</g>
					<g>
						<path fill="#766539" d="M33.445,45.457c-1.584,0-3.643-0.656-6.227-2.669c-3.593-2.798-7.495-7.747-11.285-14.313l0.671-0.389
							c3.741,6.481,7.577,11.353,11.092,14.088c3.141,2.448,5.881,3.12,7.92,1.94c2.043-1.179,2.832-3.885,2.283-7.83
							c-0.613-4.413-2.914-10.17-6.656-16.648l0.672-0.388c3.789,6.566,6.125,12.418,6.752,16.929
							c0.752,5.411-1.033,7.668-2.662,8.609C35.352,45.164,34.506,45.457,33.445,45.457z"/>
						<path fill="#766539" d="M16.097,28.759c-3.791-6.564-6.125-12.419-6.753-16.928c-0.752-5.414,1.032-7.67,2.662-8.612
							c1.628-0.941,4.476-1.358,8.787,1.999c3.592,2.799,7.495,7.749,11.286,14.314l-0.672,0.387
							c-3.74-6.479-7.575-11.351-11.089-14.088c-3.142-2.448-5.882-3.119-7.923-1.939c-2.04,1.178-2.828,3.886-2.281,7.83
							c0.614,4.414,2.917,10.169,6.656,16.648L16.097,28.759z"/>
					</g>
					<g>
						<path fill="#766539" d="M38.604,38.844c-4.686,0-11.432-2.356-19.352-6.929l0.387-0.673
							c12.305,7.103,21.912,8.822,24.48,4.377c2.566-4.447-3.725-11.91-16.027-19.015l0.387-0.671
							c12.906,7.45,19.158,15.141,16.313,20.07C43.691,37.909,41.555,38.844,38.604,38.844z"/>
						<path fill="#766539" d="M19.534,32.075C12.969,28.286,8.02,24.383,5.221,20.791c-3.358-4.31-2.942-7.157-2-8.787
							c0.94-1.629,3.2-3.415,8.609-2.662c4.511,0.627,10.365,2.962,16.93,6.752l-0.387,0.673c-6.48-3.741-12.237-6.042-16.65-6.655
							c-3.944-0.55-6.652,0.24-7.83,2.281c-1.178,2.04-0.507,4.78,1.939,7.921c2.739,3.514,7.61,7.351,14.089,11.09L19.534,32.075z"
							/>
					</g>
				</g>
			</g>
		</g>
	</g>
</g>
</svg>
