<svg xmlns="http://www.w3.org/2000/svg" width="16.558" height="25.577"><g fill="#222" data-name="Icon feather-arrow-right"><path d="M9.779 1.5v22.577a1.5 1.5 0 0 1-1.5 1.5 1.5 1.5 0 0 1-1.5-1.5V1.5a1.5 1.5 0 0 1 1.5-1.5 1.5 1.5 0 0 1 1.5 1.5Z" data-name="パス 85"/><path d="M16.558 11.546a1.5 1.5 0 0 1-.658 1.243 1.5 1.5 0 0 1-2.082-.4l-5.536-8.2-5.536 8.2a1.5 1.5 0 0 1-2.082.4 1.5 1.5 0 0 1-.4-2.082L7.036.661a1.5 1.5 0 0 1 2.487 0L16.3 10.707a1.493 1.493 0 0 1 .258.839Z" data-name="パス 86"/></g></svg>